<svg width="530" height="109" viewBox="0 0 530 109" fill="none" xmlns="http://www.w3.org/2000/svg">
<path d="M42.752 96.34C37.8027 99.2787 32.4667 100.748 26.744 100.748C21.0213 100.748 16.652 99.82 13.636 97.964C10.62 96.1853 9.112 93.904 9.112 91.12C9.112 88.4133 10.1947 86.2093 12.36 84.508C14.6027 82.884 17.928 82.072 22.336 82.072C28.368 82.072 33.7813 84.3147 38.576 88.8C39.504 85.9387 40.2773 82.768 40.896 79.288L41.592 74.996H36.72V72.444H42.056L50.872 22.1C51.2587 19.2387 51.8 16.9187 52.496 15.14C36.488 16.3773 24.1147 19.78 15.376 25.348C6.71467 30.8387 2.384 38.0693 2.384 47.04C2.384 51.0613 3.776 54.464 6.56 57.248C8.49333 59.104 11.0453 60.5347 14.216 61.54C17.3867 62.468 19.9773 63.0093 21.988 63.164C24.076 63.2413 25.1973 63.2027 25.352 63.048V65.484C16.2267 65.484 9.46 63.3187 5.052 58.988C1.804 55.972 0.18 51.9893 0.18 47.04C0.18 37.2187 4.78133 29.3693 13.984 23.492C23.1867 17.5373 36.3333 13.98 53.424 12.82C57.0587 4.7 63.8253 0.639996 73.724 0.639996V3.656C71.7907 3.888 70.4373 4.66133 69.664 5.976C68.968 7.29066 68.3493 9.41733 67.808 12.356C74.2267 12.4333 79.7173 13.2453 84.28 14.792C88.92 16.2613 92.4387 18.2333 94.836 20.708C99.3987 25.4253 101.68 30.9547 101.68 37.296C101.68 42.168 100.752 46.6147 98.896 50.636C97.1173 54.58 94.836 57.828 92.052 60.38C89.268 62.932 85.8653 65.136 81.844 66.992C75.1933 70.1627 67.1893 72.4053 57.832 73.72V73.952C56.208 83 51.8773 89.9987 44.84 94.948C48.0107 97.8093 51.4907 100.052 55.28 101.676C59.0693 103.3 63.9413 104.112 69.896 104.112V106.664C63.4773 106.664 58.18 105.736 54.004 103.88C49.9053 102.101 46.1547 99.588 42.752 96.34ZM98.664 37.296C98.664 30.4907 96.0733 25.0387 90.892 20.94C85.788 16.8413 78.016 14.7147 67.576 14.56C64.7147 35.5947 61.66 54.4253 58.412 71.052C85.2467 67.1853 98.664 55.9333 98.664 37.296ZM37.648 91.352C35.1733 89.032 32.8147 87.2533 30.572 86.016C28.3293 84.856 25.584 84.276 22.336 84.276C19.1653 84.276 16.6133 84.856 14.68 86.016C12.824 87.2533 11.896 88.916 11.896 91.004C11.896 93.1693 13.1333 94.948 15.608 96.34C18.0827 97.8093 21.06 98.544 24.54 98.544C28.02 98.544 30.7653 98.0413 32.776 97.036C34.864 96.0307 36.488 94.136 37.648 91.352ZM127.427 78.824C126.422 80.1387 125.03 81.3373 123.251 82.42C121.55 83.5027 119.307 84.044 116.523 84.044C113.739 84.044 111.381 83.1547 109.447 81.376C107.514 79.5973 106.547 77.084 106.547 73.836C106.547 73.2173 106.625 72.212 106.779 70.82L114.319 29.06C115.711 21.404 117.606 15.952 120.003 12.704C122.478 9.456 125.726 7.832 129.747 7.832C132.531 7.832 134.813 8.876 136.591 10.964C138.447 13.052 139.375 16.2227 139.375 20.476C139.375 24.7293 137.713 30.8 134.387 38.688C131.139 46.576 129.515 52.3373 129.515 55.972H127.427C127.427 51.8733 129.051 46.0347 132.299 38.456C135.547 30.8 137.171 24.6907 137.171 20.128C137.171 17.344 136.514 14.9467 135.199 12.936C133.962 10.9253 132.415 9.91999 130.559 9.91999C130.482 11.9307 129.129 20.9787 126.499 37.064C123.947 53.072 121.395 67.9587 118.843 81.724C121.009 81.724 123.019 80.6027 124.875 78.36C126.731 76.1173 128.046 73.8747 128.819 71.632L130.095 68.152L132.183 69.08C131.951 70.1627 131.333 71.748 130.327 73.836C129.399 75.8467 128.433 77.5093 127.427 78.824ZM179.433 84.044C172.627 84.044 168.915 81.0667 168.297 75.112C164.894 81.0667 160.602 84.044 155.421 84.044C150.239 84.044 146.102 82.4973 143.009 79.404C139.993 76.2333 138.485 71.8253 138.485 66.18C138.485 57.364 140.65 50.4427 144.981 45.416C149.311 40.3893 154.918 37.876 161.801 37.876C167.446 37.876 171.197 40.544 173.053 45.88C173.439 43.56 173.865 41.24 174.329 38.92C180.051 38.92 184.305 38.688 187.089 38.224L188.597 37.876L180.593 81.724C182.913 81.492 184.846 80.4093 186.393 78.476L188.133 79.868C185.813 82.652 182.913 84.044 179.433 84.044ZM151.593 72.096C151.593 75.576 152.018 78.012 152.869 79.404C153.797 80.7187 155.189 81.376 157.045 81.376C158.901 81.376 160.795 80.3707 162.729 78.36C165.281 75.7307 167.33 72.4053 168.877 68.384C169.109 67.3787 169.534 64.9813 170.153 61.192C170.849 57.3253 171.429 54.1547 171.893 51.68C171.661 48.7413 170.849 46.1893 169.457 44.024C168.065 41.8587 166.325 40.776 164.237 40.776C160.447 40.776 157.393 44.1787 155.073 50.984C152.753 57.712 151.593 64.7493 151.593 72.096ZM239.564 81.724C241.42 81.724 243.353 80.6413 245.364 78.476L247.104 79.868C246.563 80.9507 245.364 81.9173 243.508 82.768C241.652 83.6187 239.603 84.044 237.36 84.044C230.323 84.044 226.804 80.8733 226.804 74.532C226.804 71.8253 227.5 66.992 228.892 60.032C230.284 53.072 230.98 48.5093 230.98 46.344C230.98 43.0187 229.395 41.356 226.224 41.356C223.672 41.356 221.197 43.0187 218.8 46.344C216.48 49.6693 214.547 54.232 213 60.032L209.056 81.724C211.453 81.492 213.425 80.4093 214.972 78.476L216.712 79.868C214.392 82.652 211.492 84.044 208.012 84.044C204.532 84.044 201.787 83.1547 199.776 81.376C197.843 79.5973 196.876 77.2773 196.876 74.416C196.876 73.3333 197.495 69.08 198.732 61.656L202.56 40.196C200.24 40.428 198.307 41.5107 196.76 43.444L195.02 42.052C197.34 39.268 200.24 37.876 203.72 37.876C207.277 37.876 210.023 38.7653 211.956 40.544C213.889 42.3227 214.856 44.836 214.856 48.084V48.78C218.027 41.5107 222.976 37.876 229.704 37.876C234.267 37.876 237.824 39.1907 240.376 41.82C242.928 44.372 244.204 47.9293 244.204 52.492C244.204 54.8893 243.469 59.5293 242 66.412C240.531 73.2173 239.719 78.3213 239.564 81.724ZM259.751 38.92L262.883 21.752C268.606 21.752 272.859 21.52 275.643 21.056L277.151 20.708C276.068 26.1213 274.87 32.192 273.555 38.92H287.939L287.707 41.008H273.207C269.34 60.96 267.407 72.9853 267.407 77.084C267.407 79.5587 268.722 80.796 271.351 80.796C273.98 80.796 276.378 79.1333 278.543 75.808C280.708 72.4827 282.255 68.8867 283.183 65.02L285.271 65.716C282.41 77.9347 276.494 84.044 267.523 84.044C263.811 84.044 260.718 83.0387 258.243 81.028C255.768 78.94 254.531 76.0787 254.531 72.444C254.531 68.732 256.116 58.2533 259.287 41.008H253.603L253.835 38.92H259.751Z" fill="#27AE60"/>
<path d="M318.942 105.504C327.062 105.504 333.364 103.841 337.85 100.516C342.412 97.1907 344.694 92.7827 344.694 87.292C344.694 83.348 343.688 79.868 341.678 76.852C339.744 73.836 337.308 71.3613 334.37 69.428C331.431 67.4173 328.415 65.4453 325.322 63.512C322.306 61.5787 319.483 59.1427 316.854 56.204C314.224 53.2653 312.484 49.94 311.634 46.228C304.596 44.14 299.956 39.7707 297.714 33.12C296.863 30.568 296.438 27.9 296.438 25.116C296.438 22.332 296.863 19.432 297.714 16.416C299.492 10.4613 302.392 5.976 306.414 2.95999L307.69 4.816C304.055 7.44533 301.426 11.544 299.802 17.112C299.028 19.896 298.642 22.564 298.642 25.116C298.642 27.668 299.028 30.104 299.802 32.424C301.658 38.0693 305.486 41.8587 311.286 43.792C311.131 42.9413 311.054 41.6267 311.054 39.848C311.054 29.7173 314.727 21.52 322.074 15.256C329.42 8.992 338.391 5.86 348.986 5.86C355.946 5.86 361.514 7.75466 365.69 11.544C369.247 14.8693 371.026 18.968 371.026 23.84C371.026 28.6347 369.402 32.8107 366.154 36.368C362.906 39.848 358.536 41.588 353.046 41.588C350.03 41.588 347.555 41.008 345.622 39.848C341.678 42.864 336.999 45.0293 331.586 46.344C333.132 47.8133 336.728 50.52 342.374 54.464C348.096 58.408 352.35 62.1973 355.134 65.832C357.995 69.3893 359.426 73.5653 359.426 78.36C359.426 87.176 355.984 94.3293 349.102 99.82C342.296 105.311 333.635 108.056 323.118 108.056C312.678 108.056 304.79 105.736 299.454 101.096C294.814 97.152 292.494 92.3187 292.494 86.596C292.494 80.9507 294.311 76.1173 297.946 72.096C301.658 67.9973 306.259 65.948 311.75 65.948C317.24 65.948 321.3 67.1853 323.93 69.66C326.559 72.0573 327.874 74.996 327.874 78.476C327.874 81.956 326.791 85.0493 324.626 87.756C322.538 90.4627 319.792 91.816 316.39 91.816C312.987 91.816 310.28 90.7333 308.27 88.568C306.414 86.712 305.37 84.392 305.138 81.608C305.06 80.8347 305.06 80.3707 305.138 80.216L307.342 80.332C307.264 83.0387 308.115 85.2813 309.894 87.06C311.363 88.684 313.49 89.496 316.274 89.496C319.135 89.496 321.416 88.3747 323.118 86.132C324.819 83.9667 325.67 81.4533 325.67 78.592C325.67 75.6533 324.664 73.2947 322.654 71.516C320.411 69.2733 316.815 68.152 311.866 68.152C306.916 68.152 302.818 69.9693 299.57 73.604C296.322 77.1613 294.698 81.4533 294.698 86.48C294.698 91.584 296.786 95.9147 300.962 99.472C303.436 101.637 305.95 103.184 308.502 104.112C311.131 105.04 314.611 105.504 318.942 105.504ZM338.662 25.696C338.662 22.2933 339.512 19.4707 341.214 17.228C342.992 14.9853 345.39 13.864 348.406 13.864C353.587 13.864 356.178 16.7253 356.178 22.448C356.178 28.0933 353.355 33.4293 347.71 38.456C349.411 39.2293 351.19 39.616 353.046 39.616C357.84 39.616 361.668 38.0693 364.53 34.976C367.391 31.8053 368.822 28.132 368.822 23.956C368.822 19.7027 367.275 16.1067 364.182 13.168C360.392 9.76533 355.404 8.064 349.218 8.064C343.031 8.064 337.772 9.572 333.442 12.588C326.714 17.3827 323.35 23.5693 323.35 31.148C323.35 37.412 325.438 41.9747 329.614 44.836C334.795 43.676 339.59 41.588 343.998 38.572C340.44 35.4013 338.662 31.1093 338.662 25.696ZM348.29 15.952C345.97 15.952 344.152 16.8413 342.838 18.62C341.6 20.3987 340.982 22.7573 340.982 25.696C340.982 30.7227 342.567 34.5507 345.738 37.18C348.058 35.556 349.991 33.352 351.538 30.568C353.084 27.784 353.858 25.0387 353.858 22.332C353.858 18.0787 352.002 15.952 348.29 15.952ZM415.797 81.724C417.653 81.724 419.586 80.6413 421.597 78.476L423.337 79.868C422.796 80.9507 421.597 81.9173 419.741 82.768C417.885 83.6187 415.836 84.044 413.593 84.044C406.556 84.044 403.037 80.8733 403.037 74.532C403.037 71.8253 403.733 66.992 405.125 60.032C406.517 53.072 407.213 48.5093 407.213 46.344C407.213 43.0187 405.628 41.356 402.457 41.356C399.828 41.356 397.276 43.1347 394.801 46.692C392.404 50.2493 390.432 55.0827 388.885 61.192L385.057 83H371.137L384.013 10.152C381.693 10.384 379.76 11.4667 378.213 13.4L376.473 12.008C378.793 9.224 381.693 7.832 385.173 7.832C388.73 7.832 391.476 8.72133 393.409 10.5C395.342 12.2787 396.309 14.792 396.309 18.04C396.309 18.6587 396.232 19.664 396.077 21.056L391.205 48.548C394.376 41.4333 399.286 37.876 405.937 37.876C410.5 37.876 414.057 39.1907 416.609 41.82C419.161 44.372 420.437 47.9293 420.437 52.492C420.437 54.8893 419.702 59.5293 418.233 66.412C416.764 73.2173 415.952 78.3213 415.797 81.724ZM447.036 84.044C441.082 84.044 436.558 82.5747 433.464 79.636C430.371 76.62 428.824 72.8693 428.824 68.384C428.824 63.8213 429.211 59.9547 429.984 56.784C430.835 53.536 432.188 50.4427 434.044 47.504C435.9 44.488 438.684 42.1293 442.396 40.428C446.186 38.7267 450.864 37.876 456.432 37.876C462.078 37.876 466.447 39.384 469.54 42.4C472.711 45.3387 474.296 49.3987 474.296 54.58C474.296 63.396 471.938 70.5107 467.22 75.924C462.58 81.3373 455.852 84.044 447.036 84.044ZM441.932 72.096C441.932 78.2827 443.711 81.376 447.268 81.376C450.903 81.376 454.112 78.2827 456.896 72.096C459.758 65.832 461.188 58.408 461.188 49.824C461.188 43.328 459.41 40.08 455.852 40.08C452.372 40.08 449.163 43.0573 446.224 49.012C443.363 54.8893 441.932 62.584 441.932 72.096ZM503.228 83.928C499.67 83.928 496.848 83.116 494.76 81.492L491.28 100.168H477.476L488.38 39.384C486.06 39.616 484.126 40.6987 482.58 42.632L480.84 41.24C483.16 38.456 486.021 37.064 489.424 37.064C492.904 37.064 495.61 37.9147 497.544 39.616C499.477 41.24 500.521 43.56 500.676 46.576C504.078 40.776 508.409 37.876 513.668 37.876C518.926 37.876 522.948 39.384 525.732 42.4C528.516 45.3387 529.908 49.3987 529.908 54.58C529.908 63.7053 527.433 70.8973 522.484 76.156C517.534 81.3373 511.116 83.928 503.228 83.928ZM495.572 76.852C496.886 79.7907 499.361 81.26 502.996 81.26C506.708 81.26 509.917 78.1667 512.624 71.98C515.408 65.7933 516.8 58.408 516.8 49.824C516.8 46.2667 516.413 43.8307 515.64 42.516C514.944 41.2013 513.629 40.544 511.696 40.544C509.762 40.544 507.752 41.704 505.664 44.024C503.653 46.344 502.184 48.548 501.256 50.636C500.328 52.6467 499.864 53.8067 499.864 54.116H499.748L495.572 76.852Z" fill="#F2994A"/>
</svg>
